#!OML:ASF I:\salsa\salsa 7_09\Patient 1\Session 1\dancerfemale.ASF
:FULLY-SPECIFIED
:DEGREES
1364
root 24.382 16.1169 -4.84093 -1464.09 246.603 395.814
lowerback 1.31224 3.96833 1.60917
upperback -6.70948 5.39357 2.69103
thorax -7.87505 2.56891 1.49996
lowerneck 1.79148 -0.505705 -6.80634
upperneck 10.7941 -2.141 13.0078
head 3.05669 -1.0433 5.05865
rclavicle 6.08778e-015 -7.95139e-015
rhumerus 13.4106 20.5018 -107.44
rradius 35.7631
rwrist -3.81991
rhand 2.17727 768.406
rfingers 7.12502
rthumb 27.6741 20.4219
lclavicle 6.08778e-015 -7.95139e-015
lhumerus -10.0406 -10.7261 103.94
lradius 74.1444
lwrist -30.6415
lhand -31.8345 41.2614
lfingers 7.12502
lthumb -5.08891 -288.82
rfemur 10.4234 -3.88308 29.4813
rtibia -3.18055e-015
rfoot 3.46449 -2.39023
rtoes -32.5774
lfemur -39.9757 12.8395 -7.48787
ltibia 37.4068
lfoot -14.8196 28.6439
ltoes -3.50855
1365
root 24.5347 16.1001 -4.91828 -1465.7 245.845 397.891
lowerback 0.997197 4.09921 2.23352
upperback -6.75729 5.59045 2.97941
thorax -7.71963 2.6316 1.46481
lowerneck 1.73461 -0.569747 -6.78087
upperneck 10.6583 -2.22737 13.1722
head 3.03543 -1.08025 5.10242
rclavicle -1.12313e-014 -2.38542e-015
rhumerus 13.6028 20.5917 -107.431
rradius 36.0188
rwrist -4.15304
rhand 2.2621 768.291
rfingers 7.12502
rthumb 27.7552 20.3204
lclavicle -1.12313e-014 -2.38542e-015
lhumerus -9.75513 -10.5141 103.915
lradius 74.1657
lwrist -30.8139
lhand -31.9466 40.6582
lfingers 7.12502
lthumb -5.19712 -289.426
rfemur 9.7011 -3.90713 31.0176
rtibia -3.18055e-015
rfoot 2.62092 -1.61675
rtoes -32.5916
lfemur -40.5579 12.8557 -5.61577
ltibia 37.4482
lfoot -14.7646 28.9394
ltoes -3.87558
1366
root 24.6665 16.0847 -4.99028 -1466.93 245.304 399.69
lowerback 0.552336 4.14334 2.67797
upperback -6.88214 5.64703 3.25191
thorax -7.58513 2.63394 1.53142
lowerneck 1.74511 -0.585514 -6.75954
upperneck 10.5381 -2.24958 13.2995
head 3.00072 -1.08952 5.13723
rclavicle -4.1546e-014 -3.97569e-015
rhumerus 13.5367 20.0158 -107.906
rradius 36.2785
rwrist -3.737
rhand 2.46165 768.219
rfingers 7.12502
rthumb 27.946 20.2785
lclavicle -4.1546e-014 -3.97569e-015
lhumerus -9.50373 -10.4339 103.806
lradius 74.2026
lwrist -31.1867
lhand -31.977 40.4313
lfingers 7.12502
lthumb -5.22654 -289.653
rfemur 8.94631 -4.06661 32.31
rtibia 6.36111e-015
rfoot 1.92023 -0.82697
rtoes -32.5635
lfemur -41.1968 12.7139 -3.99327
ltibia 37.435
lfoot -14.6841 29.1973
ltoes -4.28433
1367
root 24.7837 16.0701 -5.06054 -1467.82 245.046 400.889
lowerback 0.387669 4.08179 2.75025
upperback -7.01883 5.56207 3.48635
thorax -7.65606 2.58782 1.75201
lowerneck 1.79347 -0.502487 -6.95867
upperneck 10.4645 -2.16418 13.6407
head 2.96373 -1.04958 5.28077
rclavicle -2.38542e-015 1.59028e-015
rhumerus 12.9773 18.1858 -109.246
rradius 36.6594
rwrist -1.79593
rhand 2.51692 768.241
rfingers 7.12502
rthumb 27.9988 20.3093
lclavicle -2.38542e-015 1.59028e-015
lhumerus -9.33591 -10.4326 103.586
lradius 74.3139
lwrist -31.6521
lhand -31.7408 40.6239
lfingers 7.12502
lthumb -4.99845 -289.455
rfemur 8.47112 -4.4143 33.2228
rtibia 3.18055e-014
rfoot 1.27429 -0.103838
rtoes -31.6694
lfemur -41.5773 12.3968 -2.75629
ltibia 37.3323
lfoot -14.8289 29.4506
ltoes -3.78438
1368
root 24.8886 16.0559 -5.12541 -1468.34 245.096 401.403
lowerback 0.489361 3.94535 2.43829
upperback -7.05219 5.37948 3.64779
thorax -7.79482 2.52092 2.09821
lowerneck 1.80165 -0.425946 -7.27636
upperneck 10.3197 -2.07421 14.0076
head 2.91247 -1.00923 5.45238
rclavicle 5.11871e-015 1.11319e-014
rhumerus 13.4914 20.2857 -108.146
rradius 36.757
rwrist -3.90223
rhand 1.32149 767.821
rfingers 7.12502
rthumb 26.8555 19.7083
lclavicle 5.11871e-015 1.11319e-014
lhumerus -9.115 -10.5886 103.292
lradius 74.5095
lwrist -31.9181
lhand -31.8487 40.909
lfingers 7.12502
lthumb -5.10266 -289.172
rfemur 8.28858 -4.95995 33.7133
rtibia -6.04305e-014
rfoot 0.728959 0.425131
rtoes -30.1566
lfemur -41.6953 11.9427 -2.0195
ltibia 37.1839
lfoot -14.9842 29.6054
ltoes -3.36525
